<svg xmlns="http://www.w3.org/2000/svg" width="402.693" height="33.172" viewBox="0 0 402.693 33.172">
  <g id="Grupo_391" data-name="Grupo 391" transform="translate(0)">
    <g id="Grupo_349" data-name="Grupo 349">
      <path id="Caminho_417" data-name="Caminho 417" d="M10.7,31.893a14.582,14.582,0,0,1-5.673-.942A7.384,7.384,0,0,1,1.65,28.234a9.921,9.921,0,0,1-1.485-4.3,27.138,27.138,0,0,1-.036-5.692L1.66.739Q2.916.57,3.82.5T5.537.44q.728,0,1.6.064t2.1.235l-1.453,16.6a32.842,32.842,0,0,0-.147,3.637,7.369,7.369,0,0,0,.407,2.439,2.454,2.454,0,0,0,1.145,1.349,4.577,4.577,0,0,0,2.1.406,5.2,5.2,0,0,0,2.2-.406,3.131,3.131,0,0,0,1.4-1.349A7.988,7.988,0,0,0,15.7,20.98q.281-1.5.469-3.637L17.621.739Q18.921.57,19.8.5T21.414.44q.771,0,1.663.064T25.2.739l-1.531,17.5a28.542,28.542,0,0,1-1.033,5.692,11.989,11.989,0,0,1-2.237,4.3,9.451,9.451,0,0,1-3.854,2.718,15.888,15.888,0,0,1-5.838.942Z" transform="translate(0.002 -0.397)" fill="#fff"/>
      <path id="Caminho_418" data-name="Caminho 418" d="M261.233.342q.956-.169,1.734-.257A14.058,14.058,0,0,1,264.473,0a12.535,12.535,0,0,1,1.6.107q.825.107,1.414.235l8.46,16.776L277.409.342q1.128-.169,2.034-.257c.6-.056,1.148-.085,1.633-.085a14.857,14.857,0,0,1,1.533.085q.8.087,1.689.257L281.583,30.9a10.691,10.691,0,0,1-1.264.256,11.4,11.4,0,0,1-1.766.128,11.08,11.08,0,0,1-1.913-.15c-.563-.1-.969-.177-1.221-.234l-8.51-16.69L265.45,30.9a17.775,17.775,0,0,1-3.457.384,17.426,17.426,0,0,1-3.433-.384L261.233.342Z" transform="translate(-233.212 0)" fill="#fff"/>
      <path id="Caminho_419" data-name="Caminho 419" d="M541.9,17.341a17.111,17.111,0,0,1-.677,3.338h-8.259l-.531,6.076h10.741a15.411,15.411,0,0,1,.1,3.253,16.877,16.877,0,0,1-.681,3.38H524.28L526.972,2.62h18.06q.087.941.1,1.755a14.739,14.739,0,0,1-.049,1.54,20.986,20.986,0,0,1-.637,3.38H533.963L533.551,14h8.259A16.689,16.689,0,0,1,541.9,17.341Z" transform="translate(-472.882 -2.364)" fill="#fff"/>
      <path id="Caminho_420" data-name="Caminho 420" d="M730.415.442q.909-.126,1.968-.235T734.339.1a17.633,17.633,0,0,1,1.852.107q1,.107,1.841.235l4.683,15.919L750.4.442q.866-.126,1.754-.235A14.675,14.675,0,0,1,753.895.1a16.246,16.246,0,0,1,1.831.107q.931.107,1.819.235L756.327,31q-.7.126-1.541.256a15.243,15.243,0,0,1-2.216.129A19.211,19.211,0,0,1,749.052,31L750,13.281l-5.729,11.683q-.782.128-1.56.214a12.847,12.847,0,0,1-1.419.085q-.641,0-1.321-.065a9.95,9.95,0,0,1-1.392-.234L735.4,13.451,733.39,31a16.89,16.89,0,0,1-3.458.385A17.892,17.892,0,0,1,726.5,31L730.415.442Z" transform="translate(-655.278 -0.09)" fill="#fff"/>
      <path id="Caminho_421" data-name="Caminho 421" d="M1327.755,9.4h-7.147a16.289,16.289,0,0,1-.09-3.379,17.464,17.464,0,0,1,.673-3.295h21.869q.087.941.1,1.754a14.8,14.8,0,0,1-.05,1.541,20.9,20.9,0,0,1-.637,3.379h-7.147l-2.1,23.965a23.991,23.991,0,0,1-3.8.385,22.368,22.368,0,0,1-3.774-.385l2.1-23.965Z" transform="translate(-1191.016 -2.462)" fill="#fff"/>
      <path id="Exclusão_1" data-name="Exclusão 1" d="M0,30.014H0L11.923.3C12.66.216,13.364.144,14.016.086S15.33,0,15.97,0c.534,0,1.113.028,1.77.086s1.39.132,2.185.215l6.567,29.636-6.513-.958L17.5,19.4a4.106,4.106,0,0,0-1.987-.978H15.5a5.3,5.3,0,0,0-2.477,1.008A25.351,25.351,0,0,0,10.185,21.6L7.227,28.978,0,30.014H0ZM9.83,9.8l3.059,3.446L10.514,19.36l5.012-3.91,2.28,1.958-.847-3.428,2.463-2.96L16.4,10.653l-.678-4.566-1.229,4.22Z" transform="translate(102.96 0.01)" fill="#fff"/>
    </g>
    <g id="Grupo_350" data-name="Grupo 350" transform="translate(170.876 2.792)">
      <path id="Caminho_422" data-name="Caminho 422" d="M4.525,382.669c.13-.019.261-.034.4-.044s.265-.015.395-.015.258,0,.382.015.246.025.365.044l-1.076,6.1a10.491,10.491,0,0,0-.178,1.749,1.85,1.85,0,0,0,.38,1.307,1.8,1.8,0,0,0,1.323.4A2.541,2.541,0,0,0,7.61,392a2,2,0,0,0,.769-.65,3.832,3.832,0,0,0,.523-1.084,11.337,11.337,0,0,0,.36-1.5l1.061-6.1c.139-.019.271-.034.4-.044s.255-.015.395-.015c.119,0,.248,0,.382.015s.256.025.365.044l-1.135,6.471a10.671,10.671,0,0,1-.516,1.913,4.35,4.35,0,0,1-.837,1.4,3.348,3.348,0,0,1-1.27.852,5.042,5.042,0,0,1-1.815.292,3.18,3.18,0,0,1-2.294-.732,3.036,3.036,0,0,1-.754-2.272,6.464,6.464,0,0,1,.044-.731c.031-.259.069-.533.119-.822Z" transform="translate(-0.95 -382.401)" fill="#fff"/>
      <path id="Caminho_423" data-name="Caminho 423" d="M62.441,406.1c.111-.6.2-1.111.262-1.538a7.636,7.636,0,0,0,.1-1.121c0-.13,0-.231-.007-.306a2.631,2.631,0,0,0-.038-.276,3.468,3.468,0,0,1,.36-.046c.13-.01.249-.015.358-.015s.212,0,.336.015a2.846,2.846,0,0,1,.337.046,2.038,2.038,0,0,1,.044.276c.01.1.015.242.015.411a3.687,3.687,0,0,1-.037.538c-.025.169-.053.333-.083.494a3.38,3.38,0,0,1,.418-.65,3.447,3.447,0,0,1,.628-.606,3.535,3.535,0,0,1,.8-.448,2.463,2.463,0,0,1,.934-.18,1.934,1.934,0,0,1,1.4.479,1.955,1.955,0,0,1,.5,1.478,4.5,4.5,0,0,1-.029.5c-.021.184-.044.361-.075.53l-.852,4.857c-.119.021-.249.035-.389.046s-.264.015-.373.015-.231-.006-.365-.015a2.833,2.833,0,0,1-.352-.046l.807-4.6q.044-.241.066-.464c.015-.149.024-.278.024-.388a1.114,1.114,0,0,0-.277-.852,1.049,1.049,0,0,0-.74-.255,1.47,1.47,0,0,0-.793.246,2.74,2.74,0,0,0-.731.725,5.438,5.438,0,0,0-.62,1.18,8.553,8.553,0,0,0-.441,1.613l-.494,2.8c-.119.021-.249.035-.389.046s-.264.015-.373.015-.231-.006-.367-.015a2.844,2.844,0,0,1-.351-.046l.791-4.438Z" transform="translate(-50.754 -399.522)" fill="#fff"/>
      <path id="Caminho_424" data-name="Caminho 424" d="M117.531,383.474a4.329,4.329,0,0,1,.075-.822,8.035,8.035,0,0,1,.193-.793c.14-.019.289-.034.449-.044s.3-.015.418-.015.255.006.411.015.3.025.426.044a5.516,5.516,0,0,1-.091.831,7.071,7.071,0,0,1-.193.784,4.14,4.14,0,0,1-.448.037c-.161,0-.3.007-.418.007s-.245,0-.4-.007A3.225,3.225,0,0,1,117.531,383.474Zm.015,2.764h-.927a4.183,4.183,0,0,1,.038-.582,2.588,2.588,0,0,1,.156-.6h2.391l-1.345,7.665a2.494,2.494,0,0,1-.382.037q-.217.009-.38.009c-.111,0-.224,0-.345-.009a2.3,2.3,0,0,1-.343-.037Z" transform="translate(-97.445 -381.71)" fill="#fff"/>
      <path id="Caminho_425" data-name="Caminho 425" d="M139.73,403.56c.121-.021.248-.035.382-.046s.267-.015.4-.015c.149,0,.292,0,.426.015s.262.025.382.046l.866,6.156,1.927-3.871a13.093,13.093,0,0,0,.553-1.277,3.235,3.235,0,0,0,.224-.9v-.1c.13-.021.264-.035.4-.046s.278-.015.418-.015.3,0,.441.015.277.025.4.046v.074a1.813,1.813,0,0,1-.075.5,4.353,4.353,0,0,1-.283.681q-.853,1.629-1.742,3.22t-1.771,3.19a7.127,7.127,0,0,1-.777.046c-.109,0-.242,0-.4-.009a2.559,2.559,0,0,1-.395-.037Z" transform="translate(-117.329 -400.213)" fill="#fff"/>
      <path id="Caminho_426" data-name="Caminho 426" d="M186.571,406.231a8.516,8.516,0,0,0,1.263-.3,3.4,3.4,0,0,0,.8-.374,1.253,1.253,0,0,0,.418-.426,1.036,1.036,0,0,0,.119-.494.722.722,0,0,0-.239-.56.991.991,0,0,0-.688-.217,1.831,1.831,0,0,0-.881.217,2.731,2.731,0,0,0-.725.567,3.485,3.485,0,0,0-.545.807,4.689,4.689,0,0,0-.343.934Zm-.942,1.255a2.349,2.349,0,0,0,.508,1.51,1.856,1.856,0,0,0,1.435.508,4.4,4.4,0,0,0,1.136-.143,9.505,9.505,0,0,0,.971-.306,1.632,1.632,0,0,1,.195.538,3.355,3.355,0,0,1,.059.628,3.689,3.689,0,0,1-.545.194c-.214.06-.438.112-.672.156s-.471.08-.71.1a6.346,6.346,0,0,1-.657.038,4.206,4.206,0,0,1-1.487-.231,2.568,2.568,0,0,1-.986-.644,2.454,2.454,0,0,1-.554-.971,4.118,4.118,0,0,1-.172-1.217,5.51,5.51,0,0,1,.306-1.8,5.121,5.121,0,0,1,.883-1.591,4.59,4.59,0,0,1,1.375-1.136,3.685,3.685,0,0,1,1.786-.433,2.352,2.352,0,0,1,1.562.485,1.61,1.61,0,0,1,.575,1.294,2.032,2.032,0,0,1-.321,1.143,2.771,2.771,0,0,1-.889.828,5.643,5.643,0,0,1-1.338.569,12.739,12.739,0,0,1-1.681.358Z" transform="translate(-155.204 -399.522)" fill="#fff"/>
      <path id="Caminho_427" data-name="Caminho 427" d="M228.98,411.225q.164-.942.365-1.988t.374-2.025c.113-.653.212-1.251.292-1.793a9.415,9.415,0,0,0,.119-1.292c0-.13,0-.231-.007-.306a2.636,2.636,0,0,0-.038-.276,2.616,2.616,0,0,1,.36-.038c.128,0,.249-.007.358-.007s.212,0,.336.007a2.2,2.2,0,0,1,.337.038,2.084,2.084,0,0,1,.044.261c.009.094.015.227.015.4a5.045,5.045,0,0,1-.044.672,4.385,4.385,0,0,1,.426-.507,3.208,3.208,0,0,1,.516-.435,2.451,2.451,0,0,1,.626-.307,2.486,2.486,0,0,1,.763-.112c.08,0,.167.006.261.015a1.115,1.115,0,0,1,.233.046,3.885,3.885,0,0,1-.069.679,1.849,1.849,0,0,1-.23.65c-.041-.009-.1-.019-.187-.03a2.075,2.075,0,0,0-.248-.015,2.037,2.037,0,0,0-1.621.718,4.6,4.6,0,0,0-.888,2.21l-.613,3.438a4.4,4.4,0,0,1-.613.046h-.373l-.494-.046Z" transform="translate(-193.429 -400.213)" fill="#fff"/>
      <path id="Caminho_428" data-name="Caminho 428" d="M259.8,406.934a5.175,5.175,0,0,1-.477-.224,1.907,1.907,0,0,1-.464-.343,1.723,1.723,0,0,1-.351-.53,1.877,1.877,0,0,1-.141-.769,2.175,2.175,0,0,1,.224-.995,2.153,2.153,0,0,1,.628-.747,2.94,2.94,0,0,1,.964-.47,4.379,4.379,0,0,1,1.247-.165,4.916,4.916,0,0,1,1.167.134,3.954,3.954,0,0,1,.866.3,3.722,3.722,0,0,1-.433,1.121,4.716,4.716,0,0,0-.7-.246,3.464,3.464,0,0,0-.956-.128,2.285,2.285,0,0,0-1.068.224.805.805,0,0,0-.426.778.847.847,0,0,0,.2.575,1.889,1.889,0,0,0,.725.441l.329.15c.189.088.386.184.589.283a2.557,2.557,0,0,1,.554.365,1.777,1.777,0,0,1,.4.525,1.638,1.638,0,0,1,.158.754,2.625,2.625,0,0,1-.27,1.232,2.357,2.357,0,0,1-.74.852,3.29,3.29,0,0,1-1.09.5,5.233,5.233,0,0,1-1.338.165,6.59,6.59,0,0,1-1.173-.1,4.318,4.318,0,0,1-.949-.268,3.714,3.714,0,0,1,.112-.629,2.157,2.157,0,0,1,.248-.567,4.441,4.441,0,0,0,.911.261,5.355,5.355,0,0,0,.972.1,3.55,3.55,0,0,0,.7-.068,1.864,1.864,0,0,0,.569-.209,1.084,1.084,0,0,0,.38-.382,1.154,1.154,0,0,0,.141-.6.871.871,0,0,0-.268-.7,2.677,2.677,0,0,0-.762-.426Z" transform="translate(-217.551 -399.522)" fill="#fff"/>
      <path id="Caminho_429" data-name="Caminho 429" d="M303.32,383.474a4.328,4.328,0,0,1,.075-.822q.075-.389.195-.793c.138-.019.289-.034.448-.044s.3-.015.418-.015.256.006.411.015.3.025.426.044a5.521,5.521,0,0,1-.09.831,7.413,7.413,0,0,1-.194.784,4.109,4.109,0,0,1-.448.037c-.159,0-.3.007-.418.007s-.245,0-.4-.007A3.251,3.251,0,0,1,303.32,383.474Zm.015,2.764h-.925a4.428,4.428,0,0,1,.037-.582,2.665,2.665,0,0,1,.156-.6h2.391l-1.345,7.665a2.474,2.474,0,0,1-.38.037c-.144.006-.271.009-.382.009s-.224,0-.343-.009a2.3,2.3,0,0,1-.343-.037Z" transform="translate(-255.86 -381.71)" fill="#fff"/>
      <path id="Caminho_430" data-name="Caminho 430" d="M329.474,385.672a2.353,2.353,0,0,0-.374-.059c-.13-.01-.274-.015-.433-.015a2.6,2.6,0,0,0-1.338.343,3.365,3.365,0,0,0-1.015.919,4.306,4.306,0,0,0-.651,1.3,5.022,5.022,0,0,0-.224,1.487,2.054,2.054,0,0,0,.255,1.112.842.842,0,0,0,.762.4,1.551,1.551,0,0,0,.9-.3,3.056,3.056,0,0,0,.793-.828,6.063,6.063,0,0,0,.628-1.241,8.926,8.926,0,0,0,.418-1.516Zm.866,3.272q-.166.9-.255,1.54A8.364,8.364,0,0,0,330,391.6v.306a1.517,1.517,0,0,0,.029.277,3.12,3.12,0,0,1-.351.044c-.125.01-.243.016-.352.016s-.224-.006-.343-.016a2.539,2.539,0,0,1-.329-.044q-.031-.119-.053-.261a2.743,2.743,0,0,1-.022-.4,4.993,4.993,0,0,1,.037-.5,4.092,4.092,0,0,1,.112-.591,4.89,4.89,0,0,1-.448.673,3.664,3.664,0,0,1-.628.628,3.271,3.271,0,0,1-.8.463,2.5,2.5,0,0,1-.949.18,1.78,1.78,0,0,1-1.494-.65,2.8,2.8,0,0,1-.508-1.771,6.635,6.635,0,0,1,.329-2.07,5.46,5.46,0,0,1,.971-1.793,4.816,4.816,0,0,1,1.606-1.261,4.917,4.917,0,0,1,2.219-.479c.11,0,.224,0,.343.015s.22.021.3.03c.111-.578.194-1.076.255-1.494a8.047,8.047,0,0,0,.088-1.105v-.3c0-.069,0-.155-.013-.253a3.379,3.379,0,0,1,.395-.046c.155-.01.286-.015.4-.015s.212,0,.336.007a2.357,2.357,0,0,1,.336.037,3.835,3.835,0,0,1,.046.554,7.539,7.539,0,0,1-.068.881c-.044.358-.1.7-.156,1.031l-.942,5.244Z" transform="translate(-274.363 -381.19)" fill="#fff"/>
      <path id="Caminho_431" data-name="Caminho 431" d="M380.274,404a2.342,2.342,0,0,0-.373-.059c-.131-.01-.276-.015-.435-.015a2.6,2.6,0,0,0-1.336.343,3.389,3.389,0,0,0-1.017.919,4.266,4.266,0,0,0-.65,1.3,5.022,5.022,0,0,0-.224,1.487,2.055,2.055,0,0,0,.253,1.112.845.845,0,0,0,.763.4,1.551,1.551,0,0,0,.9-.3,3.1,3.1,0,0,0,.793-.828,5.767,5.767,0,0,0,.619-1.241,9.066,9.066,0,0,0,.411-1.516Zm.852,3.273c-.109.6-.2,1.111-.261,1.54a7.616,7.616,0,0,0-.1,1.12c0,.13,0,.233.007.306a2.549,2.549,0,0,0,.037.277,3.049,3.049,0,0,1-.358.044c-.13.01-.249.016-.36.016s-.209-.006-.329-.016a3.087,3.087,0,0,1-.343-.044,3.053,3.053,0,0,1-.044-.336c-.01-.115-.016-.256-.016-.426a3.645,3.645,0,0,1,.038-.448c.025-.19.052-.359.083-.508a3.844,3.844,0,0,1-.435.664,3.762,3.762,0,0,1-.62.613,3.236,3.236,0,0,1-.791.455,2.494,2.494,0,0,1-.949.18,1.762,1.762,0,0,1-1.487-.65,2.83,2.83,0,0,1-.5-1.771,6.677,6.677,0,0,1,.329-2.07A5.489,5.489,0,0,1,376,404.43a4.818,4.818,0,0,1,1.6-1.261,4.9,4.9,0,0,1,2.226-.479,7.305,7.305,0,0,1,1.083.083,5.084,5.084,0,0,1,.964.231l-.747,4.273Z" transform="translate(-317.678 -399.522)" fill="#fff"/>
      <path id="Caminho_432" data-name="Caminho 432" d="M431.492,385.672a2.334,2.334,0,0,0-.373-.059c-.13-.01-.274-.015-.433-.015a2.6,2.6,0,0,0-1.338.343,3.388,3.388,0,0,0-1.017.919,4.337,4.337,0,0,0-.65,1.3,5.022,5.022,0,0,0-.224,1.487,2.055,2.055,0,0,0,.253,1.112.845.845,0,0,0,.763.4,1.551,1.551,0,0,0,.9-.3,3.1,3.1,0,0,0,.793-.828,6.06,6.06,0,0,0,.628-1.241,8.924,8.924,0,0,0,.418-1.516Zm.866,3.272q-.164.9-.253,1.54a8.148,8.148,0,0,0-.09,1.12v.306a1.66,1.66,0,0,0,.029.277,3.037,3.037,0,0,1-.351.044c-.124.01-.242.016-.351.016s-.224-.006-.343-.016a2.6,2.6,0,0,1-.33-.044c-.019-.08-.037-.167-.052-.261a2.747,2.747,0,0,1-.022-.4,4.578,4.578,0,0,1,.037-.5,3.9,3.9,0,0,1,.112-.591,4.89,4.89,0,0,1-.448.673,3.715,3.715,0,0,1-.628.628,3.27,3.27,0,0,1-.8.463,2.509,2.509,0,0,1-.95.18,1.782,1.782,0,0,1-1.494-.65,2.8,2.8,0,0,1-.507-1.771,6.636,6.636,0,0,1,.329-2.07,5.46,5.46,0,0,1,.971-1.793,4.8,4.8,0,0,1,1.606-1.261,4.917,4.917,0,0,1,2.219-.479c.109,0,.224,0,.343.015s.22.021.3.03q.164-.866.255-1.494a8.038,8.038,0,0,0,.088-1.105v-.3a2.486,2.486,0,0,0-.015-.253,3.409,3.409,0,0,1,.4-.046c.155-.01.286-.015.4-.015s.211,0,.336.007a2.406,2.406,0,0,1,.336.037,3.821,3.821,0,0,1,.044.554,7.489,7.489,0,0,1-.066.881c-.046.358-.1.7-.158,1.031l-.942,5.244Z" transform="translate(-361.351 -381.19)" fill="#fff"/>
      <path id="Caminho_433" data-name="Caminho 433" d="M479.651,406.231a8.559,8.559,0,0,0,1.263-.3,3.411,3.411,0,0,0,.8-.374,1.254,1.254,0,0,0,.419-.426,1.036,1.036,0,0,0,.119-.494.722.722,0,0,0-.239-.56.989.989,0,0,0-.687-.217,1.837,1.837,0,0,0-.883.217,2.778,2.778,0,0,0-.725.567,3.484,3.484,0,0,0-.545.807,4.693,4.693,0,0,0-.343.934Zm-.942,1.255a2.333,2.333,0,0,0,.508,1.51,1.852,1.852,0,0,0,1.434.508,4.38,4.38,0,0,0,1.136-.143,9.512,9.512,0,0,0,.971-.306,1.632,1.632,0,0,1,.195.538,3.359,3.359,0,0,1,.06.628,3.715,3.715,0,0,1-.547.194c-.214.06-.438.112-.672.156s-.47.08-.71.1a6.346,6.346,0,0,1-.657.038,4.206,4.206,0,0,1-1.487-.231,2.568,2.568,0,0,1-.986-.644,2.453,2.453,0,0,1-.554-.971,4.119,4.119,0,0,1-.171-1.217,5.473,5.473,0,0,1,.306-1.8,5.118,5.118,0,0,1,.881-1.591,4.59,4.59,0,0,1,1.375-1.136,3.69,3.69,0,0,1,1.786-.433,2.352,2.352,0,0,1,1.562.485,1.61,1.61,0,0,1,.575,1.294,2.032,2.032,0,0,1-.321,1.143,2.74,2.74,0,0,1-.889.828,5.615,5.615,0,0,1-1.338.569,12.737,12.737,0,0,1-1.681.358Z" transform="translate(-405.1 -399.522)" fill="#fff"/>
      <path id="Caminho_434" data-name="Caminho 434" d="M545.574,385.672a2.329,2.329,0,0,0-.374-.059c-.13-.01-.274-.015-.433-.015a2.593,2.593,0,0,0-1.336.343,3.369,3.369,0,0,0-1.017.919,4.267,4.267,0,0,0-.65,1.3,4.973,4.973,0,0,0-.224,1.487,2.056,2.056,0,0,0,.253,1.112.842.842,0,0,0,.762.4,1.552,1.552,0,0,0,.9-.3,3.076,3.076,0,0,0,.791-.828,6.06,6.06,0,0,0,.628-1.241,8.8,8.8,0,0,0,.418-1.516Zm.866,3.272q-.164.9-.253,1.54a8.139,8.139,0,0,0-.09,1.12v.306a1.522,1.522,0,0,0,.029.277,3.076,3.076,0,0,1-.351.044c-.125.01-.242.016-.352.016s-.224-.006-.343-.016a2.574,2.574,0,0,1-.329-.044c-.021-.08-.037-.167-.053-.261a2.738,2.738,0,0,1-.022-.4,4.669,4.669,0,0,1,.038-.5,3.722,3.722,0,0,1,.112-.591,4.906,4.906,0,0,1-.449.673,3.655,3.655,0,0,1-.626.628,3.31,3.31,0,0,1-.8.463,2.5,2.5,0,0,1-.949.18,1.782,1.782,0,0,1-1.494-.65,2.8,2.8,0,0,1-.508-1.771,6.633,6.633,0,0,1,.329-2.07,5.488,5.488,0,0,1,.972-1.793,4.8,4.8,0,0,1,1.606-1.261,4.916,4.916,0,0,1,2.219-.479c.109,0,.224,0,.343.015s.22.021.3.03q.164-.866.253-1.494a7.836,7.836,0,0,0,.09-1.105v-.3c0-.069-.006-.155-.015-.253a3.409,3.409,0,0,1,.4-.046c.153-.01.286-.015.395-.015s.212,0,.336.007a2.4,2.4,0,0,1,.337.037,3.821,3.821,0,0,1,.044.554,7.23,7.23,0,0,1-.068.881c-.044.358-.1.7-.156,1.031Z" transform="translate(-458.622 -381.19)" fill="#fff"/>
      <path id="Caminho_435" data-name="Caminho 435" d="M594.464,409.534a1.934,1.934,0,0,0,1.2-.382,2.944,2.944,0,0,0,.813-.964,4.809,4.809,0,0,0,.464-1.263,5.936,5.936,0,0,0,.149-1.277,1.956,1.956,0,0,0-.38-1.3,1.345,1.345,0,0,0-1.083-.449,1.873,1.873,0,0,0-1.2.389,3.089,3.089,0,0,0-.806.971,4.706,4.706,0,0,0-.457,1.263,6.222,6.222,0,0,0-.141,1.263,2.014,2.014,0,0,0,.365,1.3A1.3,1.3,0,0,0,594.464,409.534Zm-.15,1.18a2.689,2.689,0,0,1-2.092-.771,3.1,3.1,0,0,1-.7-2.173,6.37,6.37,0,0,1,.253-1.725,5.265,5.265,0,0,1,.784-1.644,4.493,4.493,0,0,1,1.331-1.226,3.58,3.58,0,0,1,1.89-.485,2.7,2.7,0,0,1,2.107.778,3.132,3.132,0,0,1,.7,2.181,6.333,6.333,0,0,1-.255,1.733,5.349,5.349,0,0,1-.776,1.637,4.287,4.287,0,0,1-1.331,1.217A3.675,3.675,0,0,1,594.314,410.714Z" transform="translate(-502.55 -399.522)" fill="#fff"/>
      <path id="Caminho_436" data-name="Caminho 436" d="M662.863,383.01h5.693a3.994,3.994,0,0,1-.239,1.345h-4.155l-.538,3.063h3.318a3.878,3.878,0,0,1-.24,1.345h-3.317q-.166.926-.321,1.83c-.1.6-.212,1.213-.321,1.832h4.273c-.029.258-.054.483-.074.672a2.912,2.912,0,0,1-.165.657h-5.8l1.883-10.744Z" transform="translate(-561.776 -382.742)" fill="#fff"/>
      <path id="Caminho_437" data-name="Caminho 437" d="M706.814,406.934a5.155,5.155,0,0,1-.477-.224,1.9,1.9,0,0,1-.463-.343,1.725,1.725,0,0,1-.352-.53,1.9,1.9,0,0,1-.141-.769,2.174,2.174,0,0,1,.224-.995,2.152,2.152,0,0,1,.628-.747,2.952,2.952,0,0,1,.964-.47,4.4,4.4,0,0,1,1.248-.165,4.9,4.9,0,0,1,1.165.134,3.956,3.956,0,0,1,.866.3,3.686,3.686,0,0,1-.433,1.121,4.719,4.719,0,0,0-.7-.246,3.456,3.456,0,0,0-.956-.128,2.289,2.289,0,0,0-1.068.224.808.808,0,0,0-.426.778.847.847,0,0,0,.2.575,1.889,1.889,0,0,0,.725.441l.328.15c.189.088.386.184.591.283a2.583,2.583,0,0,1,.552.365,1.78,1.78,0,0,1,.4.525,1.639,1.639,0,0,1,.156.754,2.623,2.623,0,0,1-.27,1.232,2.342,2.342,0,0,1-.74.852,3.261,3.261,0,0,1-1.09.5,5.22,5.22,0,0,1-1.336.165,6.605,6.605,0,0,1-1.174-.1,4.279,4.279,0,0,1-.948-.268,3.58,3.58,0,0,1,.112-.629,2.154,2.154,0,0,1,.246-.567,4.469,4.469,0,0,0,.911.261,5.357,5.357,0,0,0,.973.1,3.526,3.526,0,0,0,.7-.068,1.85,1.85,0,0,0,.569-.209,1.072,1.072,0,0,0,.38-.382,1.141,1.141,0,0,0,.143-.6.867.867,0,0,0-.27-.7,2.678,2.678,0,0,0-.762-.426Z" transform="translate(-598.704 -399.522)" fill="#fff"/>
      <path id="Caminho_438" data-name="Caminho 438" d="M749,392.548h-1.21a3.651,3.651,0,0,1,.044-.576,3.432,3.432,0,0,1,.165-.6h1.2q.075-.389.134-.793a5.692,5.692,0,0,0,.06-.837V389.5a2.674,2.674,0,0,1,.718-.224,4.14,4.14,0,0,1,.718-.075q.013.135.022.27c0,.09.007.184.007.284a6.925,6.925,0,0,1-.119,1.149l-.09.464h1.927a3.838,3.838,0,0,1-.044.6,3.551,3.551,0,0,1-.15.576h-1.913l-.582,3.242c-.05.23-.1.467-.136.71a4.177,4.177,0,0,0-.059.666.728.728,0,0,0,.231.62,1.026,1.026,0,0,0,.62.171,2.615,2.615,0,0,0,.463-.037,3.826,3.826,0,0,0,.419-.1,2.679,2.679,0,0,1,.075.33,2.463,2.463,0,0,1,.029.389v.217a1.807,1.807,0,0,1-.015.231,4.261,4.261,0,0,1-1.18.164,5.3,5.3,0,0,1-.874-.066,1.762,1.762,0,0,1-.681-.255,1.251,1.251,0,0,1-.44-.507,1.941,1.941,0,0,1-.156-.846,3.705,3.705,0,0,1,.052-.6c.035-.214.072-.436.112-.666Z" transform="translate(-635.795 -388.02)" fill="#fff"/>
      <path id="Caminho_439" data-name="Caminho 439" d="M782.972,404a2.321,2.321,0,0,0-.371-.059c-.131-.01-.276-.015-.435-.015a2.607,2.607,0,0,0-1.338.343,3.384,3.384,0,0,0-1.015.919,4.269,4.269,0,0,0-.65,1.3,4.974,4.974,0,0,0-.224,1.487,2.056,2.056,0,0,0,.253,1.112.842.842,0,0,0,.762.4,1.555,1.555,0,0,0,.9-.3,3.074,3.074,0,0,0,.791-.828,5.772,5.772,0,0,0,.62-1.241,9.359,9.359,0,0,0,.411-1.516Zm.853,3.273q-.166.9-.262,1.54a7.611,7.611,0,0,0-.1,1.12c0,.13,0,.233.007.306a2.6,2.6,0,0,0,.038.277,3.117,3.117,0,0,1-.359.044c-.128.01-.248.016-.358.016s-.209-.006-.329-.016a3.088,3.088,0,0,1-.343-.044c-.021-.109-.035-.221-.046-.336s-.015-.256-.015-.426a3.374,3.374,0,0,1,.038-.448c.024-.19.052-.359.081-.508a3.745,3.745,0,0,1-.433.664,3.82,3.82,0,0,1-.62.613,3.237,3.237,0,0,1-.791.455,2.5,2.5,0,0,1-.949.18,1.758,1.758,0,0,1-1.487-.65,2.83,2.83,0,0,1-.5-1.771,6.637,6.637,0,0,1,.329-2.07,5.516,5.516,0,0,1,.971-1.793,4.847,4.847,0,0,1,1.6-1.261,4.912,4.912,0,0,1,2.228-.479,7.271,7.271,0,0,1,1.082.083,5.128,5.128,0,0,1,.965.231Z" transform="translate(-661.042 -399.522)" fill="#fff"/>
      <path id="Caminho_440" data-name="Caminho 440" d="M834.184,385.672a2.326,2.326,0,0,0-.374-.059c-.13-.01-.274-.015-.432-.015a2.608,2.608,0,0,0-1.339.343,3.4,3.4,0,0,0-1.015.919,4.267,4.267,0,0,0-.65,1.3,5.024,5.024,0,0,0-.224,1.487,2.054,2.054,0,0,0,.253,1.112.845.845,0,0,0,.763.4,1.551,1.551,0,0,0,.9-.3,3.076,3.076,0,0,0,.791-.828,5.913,5.913,0,0,0,.628-1.241,8.807,8.807,0,0,0,.419-1.516Zm.866,3.272c-.109.6-.194,1.111-.253,1.54a8.168,8.168,0,0,0-.09,1.12v.306a1.509,1.509,0,0,0,.03.277,3.084,3.084,0,0,1-.351.044c-.125.01-.242.016-.351.016s-.225-.006-.343-.016a2.563,2.563,0,0,1-.33-.044c-.019-.08-.037-.167-.052-.261a2.71,2.71,0,0,1-.024-.4,4.685,4.685,0,0,1,.038-.5,3.715,3.715,0,0,1,.112-.591,4.923,4.923,0,0,1-.449.673,3.659,3.659,0,0,1-.626.628,3.281,3.281,0,0,1-.8.463,2.5,2.5,0,0,1-.949.18,1.782,1.782,0,0,1-1.494-.65,2.8,2.8,0,0,1-.508-1.771,6.636,6.636,0,0,1,.33-2.07,5.459,5.459,0,0,1,.971-1.793,4.8,4.8,0,0,1,1.606-1.261,4.916,4.916,0,0,1,2.219-.479c.109,0,.224,0,.343.015s.22.021.3.03c.109-.578.193-1.076.255-1.494a8.274,8.274,0,0,0,.088-1.105v-.3c0-.069-.006-.155-.015-.253a3.405,3.405,0,0,1,.4-.046c.153-.01.286-.015.4-.015s.211,0,.336.007a2.408,2.408,0,0,1,.336.037,3.821,3.821,0,0,1,.044.554,7.221,7.221,0,0,1-.068.881c-.044.358-.1.7-.156,1.031l-.941,5.244Z" transform="translate(-704.707 -381.19)" fill="#fff"/>
      <path id="Caminho_441" data-name="Caminho 441" d="M883.074,409.534a1.928,1.928,0,0,0,1.2-.382,2.947,2.947,0,0,0,.815-.964,4.86,4.86,0,0,0,.464-1.263,6.024,6.024,0,0,0,.147-1.277,1.956,1.956,0,0,0-.38-1.3,1.341,1.341,0,0,0-1.083-.449,1.869,1.869,0,0,0-1.195.389,3.054,3.054,0,0,0-.807.971,4.658,4.658,0,0,0-.455,1.263,6.136,6.136,0,0,0-.143,1.263,2.006,2.006,0,0,0,.367,1.3A1.3,1.3,0,0,0,883.074,409.534Zm-.15,1.18a2.686,2.686,0,0,1-2.091-.771,3.105,3.105,0,0,1-.7-2.173,6.373,6.373,0,0,1,.253-1.725,5.232,5.232,0,0,1,.785-1.644,4.5,4.5,0,0,1,1.329-1.226,3.58,3.58,0,0,1,1.89-.485,2.7,2.7,0,0,1,2.107.778,3.132,3.132,0,0,1,.7,2.181,6.337,6.337,0,0,1-.255,1.733,5.354,5.354,0,0,1-.777,1.637,4.253,4.253,0,0,1-1.331,1.217A3.671,3.671,0,0,1,882.924,410.714Z" transform="translate(-748.635 -399.522)" fill="#fff"/>
      <path id="Caminho_442" data-name="Caminho 442" d="M954.263,385.672a2.325,2.325,0,0,0-.374-.059c-.13-.01-.273-.015-.432-.015a2.6,2.6,0,0,0-1.338.343,3.388,3.388,0,0,0-1.017.919,4.27,4.27,0,0,0-.65,1.3,4.975,4.975,0,0,0-.224,1.487,2.056,2.056,0,0,0,.253,1.112.842.842,0,0,0,.762.4,1.555,1.555,0,0,0,.9-.3,3.1,3.1,0,0,0,.793-.828,5.98,5.98,0,0,0,.626-1.241,8.661,8.661,0,0,0,.419-1.516Zm.866,3.272c-.111.6-.193,1.111-.253,1.54a8.147,8.147,0,0,0-.09,1.12v.306a1.659,1.659,0,0,0,.029.277,3.077,3.077,0,0,1-.351.044c-.125.01-.242.016-.351.016s-.225-.006-.345-.016a2.575,2.575,0,0,1-.329-.044c-.019-.08-.037-.167-.053-.261a3.038,3.038,0,0,1-.021-.4,4.566,4.566,0,0,1,.037-.5,3.865,3.865,0,0,1,.112-.591,5.033,5.033,0,0,1-.448.673,3.724,3.724,0,0,1-.628.628,3.281,3.281,0,0,1-.8.463,2.5,2.5,0,0,1-.949.18,1.782,1.782,0,0,1-1.494-.65,2.8,2.8,0,0,1-.507-1.771,6.635,6.635,0,0,1,.327-2.07,5.488,5.488,0,0,1,.972-1.793,4.8,4.8,0,0,1,1.606-1.261,4.916,4.916,0,0,1,2.219-.479c.109,0,.224,0,.343.015s.218.021.3.03c.109-.578.195-1.076.253-1.494a7.836,7.836,0,0,0,.09-1.105v-.3a2.5,2.5,0,0,0-.015-.253,3.409,3.409,0,0,1,.4-.046c.155-.01.286-.015.395-.015s.212,0,.336.007a2.4,2.4,0,0,1,.337.037,3.813,3.813,0,0,1,.044.554,7.22,7.22,0,0,1-.068.881c-.044.358-.1.7-.156,1.031Z" transform="translate(-807.094 -381.19)" fill="#fff"/>
      <path id="Caminho_443" data-name="Caminho 443" d="M1002.419,406.231a8.586,8.586,0,0,0,1.264-.3,3.411,3.411,0,0,0,.8-.374,1.251,1.251,0,0,0,.418-.426,1.035,1.035,0,0,0,.119-.494.722.722,0,0,0-.239-.56.993.993,0,0,0-.688-.217,1.835,1.835,0,0,0-.881.217,2.731,2.731,0,0,0-.725.567,3.484,3.484,0,0,0-.545.807,4.685,4.685,0,0,0-.343.934Zm-.941,1.255a2.349,2.349,0,0,0,.508,1.51,1.853,1.853,0,0,0,1.435.508,4.389,4.389,0,0,0,1.136-.143,9.5,9.5,0,0,0,.971-.306,1.627,1.627,0,0,1,.193.538,3.226,3.226,0,0,1,.06.628,3.625,3.625,0,0,1-.545.194c-.214.06-.437.112-.673.156s-.47.08-.709.1a6.368,6.368,0,0,1-.657.038,4.206,4.206,0,0,1-1.487-.231,2.569,2.569,0,0,1-.986-.644,2.454,2.454,0,0,1-.554-.971,4.12,4.12,0,0,1-.171-1.217,5.511,5.511,0,0,1,.305-1.8,5.125,5.125,0,0,1,.883-1.591,4.587,4.587,0,0,1,1.375-1.136,3.685,3.685,0,0,1,1.786-.433,2.352,2.352,0,0,1,1.562.485,1.61,1.61,0,0,1,.575,1.294,2.032,2.032,0,0,1-.321,1.143,2.732,2.732,0,0,1-.89.828,5.581,5.581,0,0,1-1.336.569,12.746,12.746,0,0,1-1.681.358Z" transform="translate(-850.843 -399.522)" fill="#fff"/>
      <path id="Caminho_444" data-name="Caminho 444" d="M1064.831,382.669c.128-.019.271-.034.426-.044s.3-.015.441-.015.274,0,.4.015.253.025.374.044l1.463,6.65,3.811-6.65a3.816,3.816,0,0,1,.389-.044c.149-.01.295-.015.433-.015s.279,0,.419.015.264.025.373.044l-1.373,10.744c-.131.021-.258.035-.382.046s-.252.015-.38.015-.27-.006-.391-.015a2.882,2.882,0,0,1-.328-.046l1.106-8.173-3.437,5.947a4.85,4.85,0,0,1-.613.044,3.77,3.77,0,0,1-.582-.044l-1.345-5.976-1.747,8.2c-.11.021-.224.035-.343.046s-.245.015-.374.015-.24-.006-.358-.015a3.377,3.377,0,0,1-.343-.046Z" transform="translate(-904.109 -382.401)" fill="#fff"/>
      <path id="Caminho_445" data-name="Caminho 445" d="M1144.4,404a2.361,2.361,0,0,0-.374-.059c-.13-.01-.274-.015-.433-.015a2.6,2.6,0,0,0-1.338.343,3.389,3.389,0,0,0-1.017.919,4.33,4.33,0,0,0-.65,1.3,5.018,5.018,0,0,0-.223,1.487,2.042,2.042,0,0,0,.253,1.112.842.842,0,0,0,.762.4,1.55,1.55,0,0,0,.9-.3,3.078,3.078,0,0,0,.793-.828,5.762,5.762,0,0,0,.619-1.241,9.2,9.2,0,0,0,.412-1.516Zm.852,3.273q-.166.9-.262,1.54a7.6,7.6,0,0,0-.1,1.12c0,.13,0,.233.007.306a2.555,2.555,0,0,0,.038.277,3.117,3.117,0,0,1-.36.044c-.13.01-.249.016-.358.016s-.209-.006-.329-.016a3.169,3.169,0,0,1-.345-.044q-.029-.164-.044-.336c-.01-.115-.015-.256-.015-.426a3.565,3.565,0,0,1,.037-.448q.038-.285.083-.508a3.676,3.676,0,0,1-.435.664,3.741,3.741,0,0,1-.619.613,3.241,3.241,0,0,1-.792.455,2.494,2.494,0,0,1-.948.18,1.764,1.764,0,0,1-1.488-.65,2.838,2.838,0,0,1-.5-1.771,6.632,6.632,0,0,1,.329-2.07,5.457,5.457,0,0,1,.971-1.793,4.833,4.833,0,0,1,1.6-1.261,4.9,4.9,0,0,1,2.227-.479,7.326,7.326,0,0,1,1.084.083A5.145,5.145,0,0,1,1146,403l-.747,4.273Z" transform="translate(-969.217 -399.522)" fill="#fff"/>
      <path id="Caminho_446" data-name="Caminho 446" d="M1191.96,392.548h-1.21a3.673,3.673,0,0,1,.044-.576,3.444,3.444,0,0,1,.165-.6h1.195q.075-.389.134-.793a5.691,5.691,0,0,0,.061-.837V389.5a2.672,2.672,0,0,1,.718-.224,4.137,4.137,0,0,1,.718-.075q.013.135.022.27c0,.09.007.184.007.284a6.943,6.943,0,0,1-.119,1.149l-.09.464h1.929a3.837,3.837,0,0,1-.046.6,3.39,3.39,0,0,1-.15.576h-1.912l-.582,3.242c-.05.23-.1.467-.134.71a4.177,4.177,0,0,0-.06.666.728.728,0,0,0,.231.62,1.023,1.023,0,0,0,.62.171,2.616,2.616,0,0,0,.463-.037,4.024,4.024,0,0,0,.42-.1c.028.1.053.211.074.33a2.294,2.294,0,0,1,.029.389v.217a1.8,1.8,0,0,1-.015.231,4.262,4.262,0,0,1-1.18.164,5.314,5.314,0,0,1-.874-.066,1.771,1.771,0,0,1-.681-.255,1.253,1.253,0,0,1-.441-.507,1.942,1.942,0,0,1-.157-.846,3.72,3.72,0,0,1,.053-.6c.035-.214.072-.436.112-.666Z" transform="translate(-1013.487 -388.02)" fill="#fff"/>
      <path id="Caminho_447" data-name="Caminho 447" d="M1224.014,409.534a1.928,1.928,0,0,0,1.2-.382,2.946,2.946,0,0,0,.815-.964,4.862,4.862,0,0,0,.464-1.263,6.018,6.018,0,0,0,.149-1.277,1.957,1.957,0,0,0-.382-1.3,1.341,1.341,0,0,0-1.083-.449,1.875,1.875,0,0,0-1.2.389,3.11,3.11,0,0,0-.806.971,4.655,4.655,0,0,0-.455,1.263,6.221,6.221,0,0,0-.143,1.263,2.006,2.006,0,0,0,.367,1.3A1.3,1.3,0,0,0,1224.014,409.534Zm-.149,1.18a2.689,2.689,0,0,1-2.092-.771,3.1,3.1,0,0,1-.7-2.173,6.371,6.371,0,0,1,.254-1.725,5.232,5.232,0,0,1,.785-1.644,4.493,4.493,0,0,1,1.33-1.226,3.575,3.575,0,0,1,1.889-.485,2.7,2.7,0,0,1,2.108.778,3.138,3.138,0,0,1,.7,2.181,6.335,6.335,0,0,1-.255,1.733,5.317,5.317,0,0,1-.777,1.637,4.28,4.28,0,0,1-1.329,1.217A3.675,3.675,0,0,1,1223.865,410.714Z" transform="translate(-1039.34 -399.522)" fill="#fff"/>
      <path id="Caminho_448" data-name="Caminho 448" d="M1299.14,387.18c.12-.021.246-.035.38-.046s.262-.015.382-.015c.14,0,.271.006.4.015s.246.025.365.046q-.239,1.315-.47,2.607t-.457,2.608a6.492,6.492,0,0,1-1.4.374,9.949,9.949,0,0,1-1.584.134,4.724,4.724,0,0,1-1.733-.3,3.523,3.523,0,0,1-1.285-.844,3.571,3.571,0,0,1-.793-1.316,5.086,5.086,0,0,1-.268-1.7,9.329,9.329,0,0,1,.365-2.629,6.679,6.679,0,0,1,1.107-2.219,5.278,5.278,0,0,1,4.385-2.1,6.573,6.573,0,0,1,1.323.119,5.172,5.172,0,0,1,.964.284,5.791,5.791,0,0,1-.172.628,3.779,3.779,0,0,1-.292.626,4.466,4.466,0,0,0-.837-.239,5.554,5.554,0,0,0-.971-.074,3.732,3.732,0,0,0-1.905.463,3.93,3.93,0,0,0-1.314,1.233,5.528,5.528,0,0,0-.763,1.755,8.392,8.392,0,0,0-.246,2.032,3.009,3.009,0,0,0,.718,2.212,2.682,2.682,0,0,0,1.988.718,5.4,5.4,0,0,0,.74-.052,2.88,2.88,0,0,0,.635-.158Z" transform="translate(-1100.39 -381.71)" fill="#fff"/>
      <path id="Caminho_449" data-name="Caminho 449" d="M1350.98,411.225q.164-.942.365-1.988t.374-2.025q.17-.979.29-1.793a9.421,9.421,0,0,0,.121-1.292c0-.13,0-.231-.009-.306a2.292,2.292,0,0,0-.037-.276,2.615,2.615,0,0,1,.359-.038c.13,0,.248-.007.358-.007s.212,0,.336.007a2.18,2.18,0,0,1,.336.038,1.849,1.849,0,0,1,.046.261,3.94,3.94,0,0,1,.015.4,4.8,4.8,0,0,1-.046.672,4.258,4.258,0,0,1,.427-.507,3.261,3.261,0,0,1,.514-.435,2.442,2.442,0,0,1,.629-.307,2.468,2.468,0,0,1,.762-.112c.078,0,.165.006.261.015a1.079,1.079,0,0,1,.231.046,3.861,3.861,0,0,1-.068.679,1.821,1.821,0,0,1-.231.65c-.04-.009-.1-.019-.186-.03a2.178,2.178,0,0,0-1.868.7,4.62,4.62,0,0,0-.89,2.21l-.612,3.438a4.4,4.4,0,0,1-.613.046h-.373Z" transform="translate(-1150.108 -400.213)" fill="#fff"/>
      <path id="Caminho_450" data-name="Caminho 450" d="M1386.674,409.534a1.935,1.935,0,0,0,1.2-.382,2.955,2.955,0,0,0,.813-.964,4.8,4.8,0,0,0,.463-1.263,5.94,5.94,0,0,0,.15-1.277,1.947,1.947,0,0,0-.382-1.3,1.341,1.341,0,0,0-1.083-.449,1.872,1.872,0,0,0-1.195.389,3.09,3.09,0,0,0-.807.971,4.664,4.664,0,0,0-.455,1.263,6.127,6.127,0,0,0-.143,1.263,2.006,2.006,0,0,0,.367,1.3A1.3,1.3,0,0,0,1386.674,409.534Zm-.149,1.18a2.689,2.689,0,0,1-2.092-.771,3.1,3.1,0,0,1-.7-2.173,6.37,6.37,0,0,1,.255-1.725,5.228,5.228,0,0,1,.784-1.644,4.5,4.5,0,0,1,1.329-1.226,3.583,3.583,0,0,1,1.89-.485,2.7,2.7,0,0,1,2.109.778,3.138,3.138,0,0,1,.7,2.181,6.336,6.336,0,0,1-.253,1.733,5.321,5.321,0,0,1-.778,1.637,4.281,4.281,0,0,1-1.329,1.217A3.679,3.679,0,0,1,1386.525,410.714Z" transform="translate(-1178.033 -399.522)" fill="#fff"/>
      <path id="Caminho_451" data-name="Caminho 451" d="M1433.214,406.934a5.155,5.155,0,0,1-.477-.224,1.933,1.933,0,0,1-.464-.343,1.746,1.746,0,0,1-.351-.53,1.9,1.9,0,0,1-.141-.769,2.177,2.177,0,0,1,.224-.995,2.152,2.152,0,0,1,.628-.747,2.956,2.956,0,0,1,.964-.47,4.389,4.389,0,0,1,1.248-.165,4.883,4.883,0,0,1,1.164.134,3.942,3.942,0,0,1,.868.3,3.686,3.686,0,0,1-.433,1.121,4.709,4.709,0,0,0-.7-.246,3.46,3.46,0,0,0-.955-.128,2.29,2.29,0,0,0-1.07.224.805.805,0,0,0-.426.778.846.846,0,0,0,.2.575,1.9,1.9,0,0,0,.725.441l.329.15c.188.088.386.184.591.283a2.578,2.578,0,0,1,.552.365,1.784,1.784,0,0,1,.4.525,1.64,1.64,0,0,1,.156.754,2.626,2.626,0,0,1-.27,1.232,2.342,2.342,0,0,1-.74.852,3.261,3.261,0,0,1-1.09.5,5.227,5.227,0,0,1-1.336.165,6.608,6.608,0,0,1-1.174-.1,4.3,4.3,0,0,1-.947-.268,3.419,3.419,0,0,1,.112-.629,2.2,2.2,0,0,1,.246-.567,4.458,4.458,0,0,0,.912.261,5.328,5.328,0,0,0,.971.1,3.538,3.538,0,0,0,.7-.068,1.865,1.865,0,0,0,.569-.209,1.071,1.071,0,0,0,.38-.382,1.141,1.141,0,0,0,.141-.6.866.866,0,0,0-.268-.7,2.66,2.66,0,0,0-.762-.426Z" transform="translate(-1218.074 -399.522)" fill="#fff"/>
      <path id="Caminho_452" data-name="Caminho 452" d="M1472.156,406.934a5.027,5.027,0,0,1-.479-.224,1.9,1.9,0,0,1-.463-.343,1.724,1.724,0,0,1-.351-.53,1.878,1.878,0,0,1-.143-.769,2.11,2.11,0,0,1,.852-1.742,2.956,2.956,0,0,1,.964-.47,4.4,4.4,0,0,1,1.248-.165,4.913,4.913,0,0,1,1.166.134,3.958,3.958,0,0,1,.866.3,3.686,3.686,0,0,1-.433,1.121,4.687,4.687,0,0,0-.7-.246,3.476,3.476,0,0,0-.958-.128,2.289,2.289,0,0,0-1.068.224.808.808,0,0,0-.426.778.847.847,0,0,0,.2.575,1.9,1.9,0,0,0,.725.441l.329.15c.19.088.386.184.591.283a2.584,2.584,0,0,1,.552.365,1.784,1.784,0,0,1,.4.525,1.637,1.637,0,0,1,.156.754,2.623,2.623,0,0,1-.27,1.232,2.354,2.354,0,0,1-.738.852,3.288,3.288,0,0,1-1.09.5,5.241,5.241,0,0,1-1.338.165,6.576,6.576,0,0,1-1.173-.1,4.292,4.292,0,0,1-.949-.268,3.419,3.419,0,0,1,.112-.629,2.2,2.2,0,0,1,.246-.567,4.458,4.458,0,0,0,.912.261,5.343,5.343,0,0,0,.971.1,3.553,3.553,0,0,0,.7-.068,1.854,1.854,0,0,0,.567-.209,1.087,1.087,0,0,0,.382-.382,1.155,1.155,0,0,0,.141-.6.867.867,0,0,0-.27-.7,2.639,2.639,0,0,0-.762-.426Z" transform="translate(-1251.276 -399.522)" fill="#fff"/>
      <path id="Caminho_453" data-name="Caminho 453" d="M1515.974,409.534a1.929,1.929,0,0,0,1.2-.382,2.945,2.945,0,0,0,.815-.964,4.811,4.811,0,0,0,.463-1.263,5.946,5.946,0,0,0,.15-1.277,1.957,1.957,0,0,0-.382-1.3,1.341,1.341,0,0,0-1.083-.449,1.869,1.869,0,0,0-1.2.389,3.073,3.073,0,0,0-.807.971,4.651,4.651,0,0,0-.455,1.263,6.119,6.119,0,0,0-.143,1.263,2,2,0,0,0,.367,1.3,1.3,1.3,0,0,0,1.068.449Zm-.15,1.18a2.686,2.686,0,0,1-2.091-.771,3.105,3.105,0,0,1-.7-2.173,6.429,6.429,0,0,1,.254-1.725,5.266,5.266,0,0,1,.785-1.644,4.5,4.5,0,0,1,1.329-1.226,3.579,3.579,0,0,1,1.89-.485,2.7,2.7,0,0,1,2.107.778,3.132,3.132,0,0,1,.7,2.181,6.335,6.335,0,0,1-.255,1.733,5.287,5.287,0,0,1-.777,1.637,4.282,4.282,0,0,1-1.329,1.217A3.684,3.684,0,0,1,1515.823,410.714Z" transform="translate(-1288.281 -399.522)" fill="#fff"/>
      <g id="Grupo_291" data-name="Grupo 291" transform="translate(0 16.957)">
        <path id="Caminho_456" data-name="Caminho 456" d="M133.179,521.005a2.857,2.857,0,0,1,.3,1.161,3.675,3.675,0,0,1-.588.206c-.209.055-.424.1-.642.136s-.436.065-.65.082-.408.028-.581.028a3.625,3.625,0,0,1-2.755-1.012,3.88,3.88,0,0,1-.964-2.789,8.332,8.332,0,0,1,.342-2.378,6.233,6.233,0,0,1,1.018-2.03,5.134,5.134,0,0,1,1.675-1.415,4.83,4.83,0,0,1,2.31-.533,6.432,6.432,0,0,1,1.236.1,4.507,4.507,0,0,1,.869.253,5.229,5.229,0,0,1-.158.573,3.462,3.462,0,0,1-.267.575,4.369,4.369,0,0,0-.779-.22,5.061,5.061,0,0,0-.861-.068,3.455,3.455,0,0,0-1.75.424,3.589,3.589,0,0,0-1.21,1.127,5.086,5.086,0,0,0-.7,1.606,7.64,7.64,0,0,0-.225,1.859,2.811,2.811,0,0,0,.65,2.01,2.469,2.469,0,0,0,1.879.684,4.6,4.6,0,0,0,.964-.1A4.672,4.672,0,0,0,133.179,521.005Zm6.479-4.525a1.953,1.953,0,0,0-.342-.055c-.118-.009-.25-.013-.4-.013a2.388,2.388,0,0,0-1.223.314,3.072,3.072,0,0,0-.93.84,3.974,3.974,0,0,0-.6,1.19,4.609,4.609,0,0,0-.2,1.36,1.883,1.883,0,0,0,.233,1.018.773.773,0,0,0,.7.362,1.423,1.423,0,0,0,.821-.274,2.826,2.826,0,0,0,.725-.759,5.328,5.328,0,0,0,.567-1.135,8.478,8.478,0,0,0,.376-1.386Zm.779,2.994q-.15.82-.239,1.407a6.84,6.84,0,0,0-.09,1.026c0,.119,0,.212.007.28a2.393,2.393,0,0,0,.034.253,3.291,3.291,0,0,1-.327.041c-.119.009-.228.013-.329.013s-.192,0-.3-.013-.214-.024-.315-.041c-.018-.1-.031-.2-.04-.308s-.015-.234-.015-.389a3.2,3.2,0,0,1,.035-.41c.022-.174.047-.329.075-.466a3.4,3.4,0,0,1-.4.608,3.448,3.448,0,0,1-.566.56,2.976,2.976,0,0,1-.725.417,2.294,2.294,0,0,1-.868.165,1.609,1.609,0,0,1-1.36-.6,2.583,2.583,0,0,1-.458-1.619,6.073,6.073,0,0,1,.3-1.893,5.012,5.012,0,0,1,.888-1.641,4.431,4.431,0,0,1,1.463-1.155,4.51,4.51,0,0,1,2.036-.436,6.651,6.651,0,0,1,.992.075,4.718,4.718,0,0,1,.881.211l-.684,3.911Zm1.681,2.979c.1-.573.212-1.18.336-1.817s.236-1.257.342-1.854.193-1.143.265-1.64a8.528,8.528,0,0,0,.111-1.183c0-.118,0-.211-.007-.28a2.424,2.424,0,0,0-.034-.252,2.4,2.4,0,0,1,.329-.035c.118,0,.227-.006.327-.006s.195,0,.308.006a2.049,2.049,0,0,1,.308.035,1.75,1.75,0,0,1,.04.239,3.292,3.292,0,0,1,.015.362,4.684,4.684,0,0,1-.041.615,4.322,4.322,0,0,1,.389-.464,3.06,3.06,0,0,1,.472-.4,2.2,2.2,0,0,1,1.272-.383,2.377,2.377,0,0,1,.24.013,1.156,1.156,0,0,1,.211.041,3.569,3.569,0,0,1-.06.622,1.712,1.712,0,0,1-.212.6,1.45,1.45,0,0,0-.171-.028,2,2,0,0,0-.225-.013,1.871,1.871,0,0,0-1.484.656,4.253,4.253,0,0,0-.813,2.023l-.56,3.144a3.882,3.882,0,0,1-.561.041h-.342l-.451-.041Zm6.247-7.2c.091-.51.162-.95.212-1.319a9.632,9.632,0,0,0,.088-.992v-.259c0-.065,0-.146-.013-.246a2.946,2.946,0,0,1,.362-.041q.212-.013.362-.013c.091,0,.193,0,.308.013a2.951,2.951,0,0,1,.321.041,1.155,1.155,0,0,1,.026.246v.259c0,.1-.007.221-.021.362s-.029.289-.047.444-.041.315-.069.479-.055.32-.081.466l-1.067,5.769a2.17,2.17,0,0,0-.041.368.824.824,0,0,0,.062.349.441.441,0,0,0,.158.191.483.483,0,0,0,.211.075,2.01,2.01,0,0,0,.227.013,1.708,1.708,0,0,0,.28-.027c.1-.019.193-.037.267-.056a2.634,2.634,0,0,1,.122.849.561.561,0,0,1-.007.1.655.655,0,0,0-.006.09,2.583,2.583,0,0,1-.5.1,4.837,4.837,0,0,1-.581.034,2.871,2.871,0,0,1-.65-.068,1.2,1.2,0,0,1-.505-.246,1.167,1.167,0,0,1-.329-.471,2.02,2.02,0,0,1-.116-.731,3.025,3.025,0,0,1,.055-.548c.037-.192.074-.377.111-.56l.86-4.675Zm5.468,7.369a2.467,2.467,0,0,1-1.914-.7,2.853,2.853,0,0,1-.642-1.989,5.859,5.859,0,0,1,.233-1.58,4.784,4.784,0,0,1,.718-1.5,4.107,4.107,0,0,1,1.217-1.121,3.267,3.267,0,0,1,1.73-.443,2.467,2.467,0,0,1,1.927.71,2.878,2.878,0,0,1,.642,2,5.817,5.817,0,0,1-.233,1.585,4.9,4.9,0,0,1-.71,1.5,3.926,3.926,0,0,1-1.217,1.114,3.37,3.37,0,0,1-1.75.438Zm.137-1.08a1.761,1.761,0,0,0,1.1-.349,2.713,2.713,0,0,0,.746-.881,4.432,4.432,0,0,0,.423-1.155,5.453,5.453,0,0,0,.137-1.169,1.791,1.791,0,0,0-.349-1.19,1.228,1.228,0,0,0-.99-.41,1.717,1.717,0,0,0-1.093.355,2.783,2.783,0,0,0-.738.889,4.234,4.234,0,0,0-.417,1.155,5.664,5.664,0,0,0-.131,1.155,1.833,1.833,0,0,0,.336,1.189A1.185,1.185,0,0,0,153.971,521.539Zm6.576-2.38a4.335,4.335,0,0,1-.438-.2,1.777,1.777,0,0,1-.424-.314,1.6,1.6,0,0,1-.321-.486,1.72,1.72,0,0,1-.13-.7,1.93,1.93,0,0,1,.779-1.593,2.687,2.687,0,0,1,.881-.43,4.057,4.057,0,0,1,1.142-.15,4.474,4.474,0,0,1,1.067.122,3.636,3.636,0,0,1,.793.274,3.373,3.373,0,0,1-.4,1.024,4.545,4.545,0,0,0-.642-.226,3.236,3.236,0,0,0-.875-.115,2.076,2.076,0,0,0-.977.2.732.732,0,0,0-.39.71.777.777,0,0,0,.184.526,1.766,1.766,0,0,0,.663.4l.3.137c.172.081.352.168.539.259a2.293,2.293,0,0,1,.505.334,1.609,1.609,0,0,1,.37.479,1.5,1.5,0,0,1,.143.691,2.415,2.415,0,0,1-.246,1.127,2.184,2.184,0,0,1-.676.779,3.054,3.054,0,0,1-1,.458,4.773,4.773,0,0,1-1.224.15,6.032,6.032,0,0,1-1.073-.1,3.983,3.983,0,0,1-.868-.246,3.247,3.247,0,0,1,.1-.575,1.985,1.985,0,0,1,.227-.52,3.914,3.914,0,0,0,.833.24,4.927,4.927,0,0,0,.888.088,3.164,3.164,0,0,0,.642-.062,1.651,1.651,0,0,0,.52-.19.991.991,0,0,0,.349-.349,1.068,1.068,0,0,0,.13-.547.8.8,0,0,0-.246-.637,2.48,2.48,0,0,0-.7-.389l-.438-.178Zm11.032-6.533a3.556,3.556,0,0,1,.43-.035c.168,0,.317-.006.445-.006s.276,0,.417.006a2.934,2.934,0,0,1,.376.035l1.339,9.828a7.566,7.566,0,0,1-.793.041,5.513,5.513,0,0,1-.67-.041l-.259-2.31h-3.308l-1,2.31a5.871,5.871,0,0,1-.738.041c-.127,0-.252,0-.376-.006a2.441,2.441,0,0,1-.334-.035Zm1.148,6.315-.56-4.743-2.078,4.743Zm4.457-3.691c.09-.51.161-.95.211-1.319a9.673,9.673,0,0,0,.09-.992v-.259a2.446,2.446,0,0,0-.015-.246,3,3,0,0,1,.362-.041q.212-.013.362-.013c.091,0,.195,0,.308.013a2.9,2.9,0,0,1,.321.041,1.157,1.157,0,0,1,.028.246v.259c0,.1-.007.221-.021.362s-.029.289-.049.443-.041.315-.068.479-.055.32-.083.466l-1.067,5.769a2.3,2.3,0,0,0-.04.368.85.85,0,0,0,.06.349.452.452,0,0,0,.158.191.482.482,0,0,0,.212.075,1.963,1.963,0,0,0,.225.013,1.694,1.694,0,0,0,.28-.027c.1-.019.195-.037.267-.056a2.592,2.592,0,0,1,.124.849.728.728,0,0,1-.007.1.672.672,0,0,0-.007.09,2.548,2.548,0,0,1-.5.1,4.862,4.862,0,0,1-.582.034,2.86,2.86,0,0,1-.648-.068,1.208,1.208,0,0,1-.507-.246,1.15,1.15,0,0,1-.327-.471,1.99,1.99,0,0,1-.116-.731,2.9,2.9,0,0,1,.055-.548c.037-.192.072-.377.109-.56l.862-4.675Zm4.347,6.138a2.771,2.771,0,0,0,.37.068,3.439,3.439,0,0,0,.41.028,2.651,2.651,0,0,0,1.168-.261,2.8,2.8,0,0,0,.93-.718,3.469,3.469,0,0,0,.614-1.086,4.027,4.027,0,0,0,.227-1.367,1.974,1.974,0,0,0-.308-1.168,1.046,1.046,0,0,0-.909-.432,1.644,1.644,0,0,0-.684.15,1.793,1.793,0,0,0-.609.479,3.211,3.211,0,0,0-.5.855,5.731,5.731,0,0,0-.34,1.292l-.37,2.16Zm-.259-6.152c.081-.5.15-.937.2-1.305a6.879,6.879,0,0,0,.083-.992v-.274c0-.063-.006-.14-.015-.231a2.934,2.934,0,0,1,.362-.041q.212-.013.362-.013c.091,0,.193,0,.308.006a2.159,2.159,0,0,1,.321.035c.009.09.016.175.021.252s.006.162.006.253a6.337,6.337,0,0,1-.068.819q-.069.506-.15.944l-.314,1.79a4.025,4.025,0,0,1,.389-.464,2.385,2.385,0,0,1,.485-.383,2.558,2.558,0,0,1,.616-.261,2.912,2.912,0,0,1,.779-.094,1.834,1.834,0,0,1,1.49.662,2.865,2.865,0,0,1,.547,1.867,5.739,5.739,0,0,1-.293,1.839,4.34,4.34,0,0,1-.89,1.531,4.234,4.234,0,0,1-1.49,1.052,5.207,5.207,0,0,1-2.1.391,5.767,5.767,0,0,1-1.039-.1,4.687,4.687,0,0,1-.862-.233Zm7.955,4.429a2.141,2.141,0,0,0,.466,1.381,1.691,1.691,0,0,0,1.313.464,4.027,4.027,0,0,0,1.037-.13,9.139,9.139,0,0,0,.89-.28,1.526,1.526,0,0,1,.177.492,3.031,3.031,0,0,1,.055.573,3.084,3.084,0,0,1-.5.178c-.2.055-.4.1-.616.144s-.43.072-.648.1-.42.034-.6.034a3.821,3.821,0,0,1-1.36-.212,2.363,2.363,0,0,1-.9-.588,2.254,2.254,0,0,1-.505-.888,3.743,3.743,0,0,1-.158-1.114,5.013,5.013,0,0,1,.28-1.647,4.681,4.681,0,0,1,.806-1.456,4.2,4.2,0,0,1,1.258-1.039,3.361,3.361,0,0,1,1.634-.4,2.142,2.142,0,0,1,1.428.443,1.472,1.472,0,0,1,.526,1.183,1.848,1.848,0,0,1-.293,1.045,2.511,2.511,0,0,1-.813.759,5.085,5.085,0,0,1-1.224.52,11.51,11.51,0,0,1-1.537.329Zm.862-1.149a7.751,7.751,0,0,0,1.155-.28,3.124,3.124,0,0,0,.731-.342,1.136,1.136,0,0,0,.383-.389.953.953,0,0,0,.109-.451.657.657,0,0,0-.218-.513.9.9,0,0,0-.629-.2,1.671,1.671,0,0,0-.806.2,2.483,2.483,0,0,0-.663.519,3.186,3.186,0,0,0-.5.738,4.236,4.236,0,0,0-.314.855Zm4.51,3.937c.1-.573.212-1.18.336-1.817s.237-1.257.342-1.854.193-1.143.267-1.64a8.714,8.714,0,0,0,.109-1.183c0-.118,0-.211-.007-.28a2.438,2.438,0,0,0-.034-.252,2.39,2.39,0,0,1,.329-.035c.118,0,.227-.006.327-.006s.194,0,.308.006a2.04,2.04,0,0,1,.308.035,1.742,1.742,0,0,1,.041.239q.013.13.013.362a4.438,4.438,0,0,1-.041.614,4.348,4.348,0,0,1,.39-.464,2.932,2.932,0,0,1,.472-.4,2.181,2.181,0,0,1,.573-.28,2.219,2.219,0,0,1,.7-.1,2.378,2.378,0,0,1,.24.013,1.149,1.149,0,0,1,.212.041,3.587,3.587,0,0,1-.062.622,1.713,1.713,0,0,1-.212.6,1.425,1.425,0,0,0-.171-.028,1.983,1.983,0,0,0-.225-.013,1.873,1.873,0,0,0-1.484.656,4.253,4.253,0,0,0-.813,2.023l-.56,3.144a3.877,3.877,0,0,1-.56.041h-.342l-.452-.041Zm6.221-5.932h-1.108a3.37,3.37,0,0,1,.041-.526,3.174,3.174,0,0,1,.15-.554H201q.069-.356.124-.725a5.168,5.168,0,0,0,.054-.765v-.219a2.418,2.418,0,0,1,.656-.2,3.82,3.82,0,0,1,.657-.068c.009.081.016.164.021.246s.006.168.006.259a6.234,6.234,0,0,1-.109,1.052l-.082.424h1.764a3.4,3.4,0,0,1-.041.554,3.074,3.074,0,0,1-.136.526h-1.75l-.533,2.966c-.046.209-.085.426-.122.65a3.749,3.749,0,0,0-.055.608.667.667,0,0,0,.212.567.927.927,0,0,0,.566.156,2.338,2.338,0,0,0,.424-.034,3.614,3.614,0,0,0,.383-.088,2.522,2.522,0,0,1,.068.3,2.063,2.063,0,0,1,.028.355v.2a1.776,1.776,0,0,1-.013.212,4.113,4.113,0,0,1-.466.1,3.689,3.689,0,0,1-.614.047,4.777,4.777,0,0,1-.8-.06,1.614,1.614,0,0,1-.622-.233,1.137,1.137,0,0,1-.4-.464,1.771,1.771,0,0,1-.143-.772,3.388,3.388,0,0,1,.047-.554c.032-.2.066-.4.1-.609l.6-3.349Zm6.219,6.1a2.467,2.467,0,0,1-1.914-.7,2.853,2.853,0,0,1-.642-1.989,5.859,5.859,0,0,1,.233-1.58,4.784,4.784,0,0,1,.718-1.5,4.1,4.1,0,0,1,1.217-1.121,3.265,3.265,0,0,1,1.728-.443,2.468,2.468,0,0,1,1.929.71,2.877,2.877,0,0,1,.642,2,5.817,5.817,0,0,1-.233,1.585,4.867,4.867,0,0,1-.712,1.5,3.9,3.9,0,0,1-1.216,1.114A3.37,3.37,0,0,1,207.038,522.619Zm.137-1.08a1.761,1.761,0,0,0,1.1-.349,2.691,2.691,0,0,0,.744-.881,4.434,4.434,0,0,0,.424-1.155,5.453,5.453,0,0,0,.137-1.169,1.791,1.791,0,0,0-.349-1.19,1.229,1.229,0,0,0-.99-.41,1.724,1.724,0,0,0-1.095.355,2.822,2.822,0,0,0-.738.888,4.284,4.284,0,0,0-.417,1.155,5.764,5.764,0,0,0-.13,1.155,1.832,1.832,0,0,0,.336,1.189A1.184,1.184,0,0,0,207.175,521.539Z" transform="translate(-127.3 -512.38)" fill="#fff"/>
        <path id="Caminho_457" data-name="Caminho 457" d="M725.687,512.611c.346-.055.678-.093,1-.115s.634-.035.943-.035a5.82,5.82,0,0,1,1.2.124,3.149,3.149,0,0,1,1.046.41,2.177,2.177,0,0,1,.732.759,2.342,2.342,0,0,1,.273,1.183,3.228,3.228,0,0,1-.233,1.27,3.542,3.542,0,0,1-.58.95,3.624,3.624,0,0,1-.766.676,5.9,5.9,0,0,1-.772.438l1.792,4.183a7.784,7.784,0,0,1-.793.041,6.05,6.05,0,0,1-.738-.041l-1.9-4.579.137-.041a1.752,1.752,0,0,0,.293-.094,3.97,3.97,0,0,0,.479-.233,5.351,5.351,0,0,0,.554-.362,2.881,2.881,0,0,0,.526-.505,2.639,2.639,0,0,0,.389-.657,2.1,2.1,0,0,0,.15-.813,1.389,1.389,0,0,0-.464-1.176,2.077,2.077,0,0,0-1.285-.355c-.146,0-.276,0-.39.013s-.243.023-.389.041l-1.544,8.763c-.111.01-.227.019-.349.028s-.243.013-.362.013-.225,0-.348-.006a2.44,2.44,0,0,1-.336-.035Zm7.409,7.055a2.141,2.141,0,0,0,.466,1.381,1.69,1.69,0,0,0,1.311.464,4.03,4.03,0,0,0,1.039-.13,8.973,8.973,0,0,0,.888-.28,1.492,1.492,0,0,1,.178.492,3.03,3.03,0,0,1,.055.573,3.163,3.163,0,0,1-.5.178c-.2.055-.4.1-.614.144s-.43.072-.65.1a6.017,6.017,0,0,1-.6.034,3.815,3.815,0,0,1-1.36-.212,2.341,2.341,0,0,1-.9-.588,2.259,2.259,0,0,1-.507-.889,3.8,3.8,0,0,1-.156-1.114,5.011,5.011,0,0,1,.28-1.647,4.652,4.652,0,0,1,.806-1.456,4.177,4.177,0,0,1,1.258-1.039,3.358,3.358,0,0,1,1.633-.4,2.144,2.144,0,0,1,1.429.443,1.472,1.472,0,0,1,.526,1.183,1.849,1.849,0,0,1-.293,1.045,2.5,2.5,0,0,1-.815.759,5.075,5.075,0,0,1-1.223.52,11.49,11.49,0,0,1-1.538.328l-.71.109Zm.862-1.149a7.722,7.722,0,0,0,1.154-.28,3.113,3.113,0,0,0,.732-.342,1.137,1.137,0,0,0,.383-.389.953.953,0,0,0,.109-.451.657.657,0,0,0-.22-.513.9.9,0,0,0-.628-.2,1.676,1.676,0,0,0-.807.2,2.481,2.481,0,0,0-.663.519,3.135,3.135,0,0,0-.5.738,4.328,4.328,0,0,0-.315.855Zm7.067,3.253q.438-.942.779-1.722t.622-1.435q.281-.656.505-1.2c.15-.365.29-.712.417-1.039a2.862,2.862,0,0,0,.124-.424,1.836,1.836,0,0,0,.041-.314.684.684,0,0,0-.007-.109.53.53,0,0,1-.007-.082,3.629,3.629,0,0,1,.575-.041h.862a.457.457,0,0,1,.013.109v.109a2.115,2.115,0,0,1-.137.712q-.137.382-.3.766-.614,1.324-1.319,2.836t-1.579,3.342a8.32,8.32,0,0,1-.738,1.3,3.779,3.779,0,0,1-.7.766,1.957,1.957,0,0,1-.7.368,2.885,2.885,0,0,1-.765.1,3.225,3.225,0,0,1-.93-.135,2.878,2.878,0,0,1,.082-.575,1.358,1.358,0,0,1,.218-.479,2.23,2.23,0,0,0,.3.075,1.7,1.7,0,0,0,.329.034,1.611,1.611,0,0,0,.424-.06,1.133,1.133,0,0,0,.457-.295,3.452,3.452,0,0,0,.513-.684,9.712,9.712,0,0,0,.6-1.23,1.688,1.688,0,0,1-.233.015h-.451a1.044,1.044,0,0,1-.191-.015q-.234-1.748-.458-3.5t-.458-3.513c.128-.018.245-.032.349-.041s.221-.013.348-.013.25,0,.37.013.236.024.355.041Zm5.823-2.1a2.141,2.141,0,0,0,.466,1.381,1.693,1.693,0,0,0,1.313.464,4.047,4.047,0,0,0,1.039-.13,9.232,9.232,0,0,0,.888-.28,1.494,1.494,0,0,1,.177.492,3.035,3.035,0,0,1,.055.573,3.091,3.091,0,0,1-.5.178c-.2.055-.4.1-.616.144s-.43.072-.648.1-.42.034-.6.034a3.821,3.821,0,0,1-1.36-.212,2.365,2.365,0,0,1-.9-.588,2.252,2.252,0,0,1-.505-.889,3.79,3.79,0,0,1-.158-1.114,5.011,5.011,0,0,1,.28-1.647,4.654,4.654,0,0,1,.807-1.456,4.172,4.172,0,0,1,1.257-1.039,3.36,3.36,0,0,1,1.634-.4,2.142,2.142,0,0,1,1.428.443,1.471,1.471,0,0,1,.526,1.183,1.847,1.847,0,0,1-.293,1.045,2.511,2.511,0,0,1-.813.759,5.1,5.1,0,0,1-1.223.52,11.59,11.59,0,0,1-1.538.328l-.712.109Zm.862-1.149a7.745,7.745,0,0,0,1.155-.28,3.122,3.122,0,0,0,.731-.342,1.136,1.136,0,0,0,.383-.389.953.953,0,0,0,.109-.451.657.657,0,0,0-.218-.513.9.9,0,0,0-.629-.2,1.67,1.67,0,0,0-.806.2,2.48,2.48,0,0,0-.663.519,3.186,3.186,0,0,0-.5.738,4.236,4.236,0,0,0-.314.855Zm6.328.642a4.489,4.489,0,0,1-.436-.2,1.749,1.749,0,0,1-.424-.314,1.572,1.572,0,0,1-.321-.486,1.719,1.719,0,0,1-.13-.7,1.931,1.931,0,0,1,.78-1.593,2.686,2.686,0,0,1,.881-.43,4.049,4.049,0,0,1,1.142-.15,4.461,4.461,0,0,1,1.065.122,3.571,3.571,0,0,1,.793.274,3.334,3.334,0,0,1-.4,1.024,4.476,4.476,0,0,0-.642-.226,3.217,3.217,0,0,0-.874-.115,2.087,2.087,0,0,0-.978.2.733.733,0,0,0-.389.71.776.776,0,0,0,.184.526,1.764,1.764,0,0,0,.663.4l.3.137c.174.081.354.168.541.259a2.334,2.334,0,0,1,.505.334,1.606,1.606,0,0,1,.368.479,1.5,1.5,0,0,1,.144.691,2.414,2.414,0,0,1-.246,1.127,2.211,2.211,0,0,1-.676.779,3.047,3.047,0,0,1-1,.458,4.754,4.754,0,0,1-1.223.15,6.026,6.026,0,0,1-1.073-.1,3.981,3.981,0,0,1-.868-.246,3.244,3.244,0,0,1,.1-.575,2.032,2.032,0,0,1,.225-.52,3.952,3.952,0,0,0,.834.24,4.921,4.921,0,0,0,.888.088,3.179,3.179,0,0,0,.642-.062,1.667,1.667,0,0,0,.52-.19.975.975,0,0,0,.348-.349,1.054,1.054,0,0,0,.13-.547.8.8,0,0,0-.245-.637,2.471,2.471,0,0,0-.7-.389l-.438-.178Zm9.337-6.533c.119-.019.249-.032.389-.041s.277-.013.4-.013.25,0,.37.013.231.022.342.041l1.339,6.082,3.486-6.082a2.928,2.928,0,0,1,.355-.041c.137-.009.268-.013.4-.013s.255,0,.383.013a2.94,2.94,0,0,1,.342.041l-1.258,9.828c-.118.019-.234.032-.348.041s-.231.013-.349.013-.246,0-.355-.013a2.435,2.435,0,0,1-.3-.041l1.011-7.478-3.144,5.441a4.271,4.271,0,0,1-.56.041,3.346,3.346,0,0,1-.533-.041l-1.23-5.468-1.6,7.5a2.976,2.976,0,0,1-.315.041c-.109.009-.222.013-.342.013s-.218,0-.327-.013a2.916,2.916,0,0,1-.315-.041l2.16-9.828Zm13.917,3.855a1.975,1.975,0,0,0-.342-.055c-.118-.009-.25-.013-.4-.013a2.387,2.387,0,0,0-1.223.314,3.054,3.054,0,0,0-.93.84,3.942,3.942,0,0,0-.6,1.19,4.562,4.562,0,0,0-.2,1.36,1.87,1.87,0,0,0,.233,1.018.771.771,0,0,0,.7.362,1.42,1.42,0,0,0,.819-.274,2.784,2.784,0,0,0,.725-.759,5.19,5.19,0,0,0,.567-1.135,8.485,8.485,0,0,0,.376-1.387Zm.779,2.994c-.1.547-.181,1.015-.24,1.407a7.026,7.026,0,0,0-.088,1.026c0,.119,0,.212.007.28a2.076,2.076,0,0,0,.034.253,3.289,3.289,0,0,1-.328.041c-.118.009-.227.013-.329.013s-.19,0-.3-.013-.214-.024-.314-.041c-.018-.1-.032-.2-.041-.308s-.013-.234-.013-.389a3.444,3.444,0,0,1,.034-.41c.024-.174.049-.329.075-.466a3.556,3.556,0,0,1-.964,1.168,2.916,2.916,0,0,1-.725.417,2.285,2.285,0,0,1-.868.165,1.611,1.611,0,0,1-1.36-.6,2.592,2.592,0,0,1-.458-1.619,6.073,6.073,0,0,1,.3-1.893,5.014,5.014,0,0,1,.888-1.641,4.43,4.43,0,0,1,1.463-1.155,4.521,4.521,0,0,1,2.038-.436,6.653,6.653,0,0,1,.99.075,4.739,4.739,0,0,1,.883.211Zm2.938-4.224c.091-.51.162-.95.212-1.319a9.66,9.66,0,0,0,.088-.992v-.259c0-.065,0-.146-.013-.246a2.96,2.96,0,0,1,.362-.041q.212-.013.362-.013c.091,0,.193,0,.308.013a2.93,2.93,0,0,1,.321.041,1.149,1.149,0,0,1,.027.246v.259a3.5,3.5,0,0,1-.021.362c-.013.141-.029.289-.047.443s-.041.315-.068.479-.056.32-.083.466l-1.067,5.769a2.344,2.344,0,0,0-.041.368.825.825,0,0,0,.062.349.453.453,0,0,0,.158.192.483.483,0,0,0,.212.075,1.964,1.964,0,0,0,.226.013,1.713,1.713,0,0,0,.28-.026c.1-.019.193-.037.267-.056a2.634,2.634,0,0,1,.122.849.745.745,0,0,1-.006.1.488.488,0,0,0-.007.09,2.586,2.586,0,0,1-.5.1,4.835,4.835,0,0,1-.581.034,2.871,2.871,0,0,1-.65-.068,1.2,1.2,0,0,1-.505-.246,1.166,1.166,0,0,1-.329-.471,2.021,2.021,0,0,1-.115-.731,2.908,2.908,0,0,1,.054-.548c.035-.192.072-.377.109-.56Zm7.929,1.23a1.96,1.96,0,0,0-.34-.055q-.179-.013-.4-.013a2.388,2.388,0,0,0-1.223.314,3.071,3.071,0,0,0-.93.84,3.94,3.94,0,0,0-.594,1.19,4.563,4.563,0,0,0-.206,1.36,1.882,1.882,0,0,0,.233,1.018.773.773,0,0,0,.7.362,1.423,1.423,0,0,0,.821-.274,2.825,2.825,0,0,0,.725-.759,5.473,5.473,0,0,0,.573-1.135,7.939,7.939,0,0,0,.383-1.387l.259-1.463Zm.793,2.994c-.1.547-.177,1.015-.231,1.407a7.575,7.575,0,0,0-.083,1.026v.28a1.381,1.381,0,0,0,.028.253c-.1.018-.208.032-.321.041s-.221.013-.321.013-.2,0-.315-.013a2.76,2.76,0,0,1-.3-.041c-.018-.072-.034-.153-.047-.239a2.321,2.321,0,0,1-.021-.362,4.036,4.036,0,0,1,.034-.458,3.441,3.441,0,0,1,.1-.539,4.515,4.515,0,0,1-.411.614,3.47,3.47,0,0,1-.573.575,3,3,0,0,1-.732.423,2.287,2.287,0,0,1-.868.165,1.633,1.633,0,0,1-1.367-.6,2.565,2.565,0,0,1-.464-1.619,6.073,6.073,0,0,1,.3-1.893,5.013,5.013,0,0,1,.888-1.641,4.41,4.41,0,0,1,1.469-1.155,4.533,4.533,0,0,1,2.03-.436q.15,0,.314.013t.274.026c.1-.527.178-.984.233-1.366a7.288,7.288,0,0,0,.081-1.012v-.274c0-.063,0-.14-.013-.231a2.96,2.96,0,0,1,.362-.041q.212-.013.362-.013c.091,0,.193,0,.308.006a1.825,1.825,0,0,1,.307.035,3.341,3.341,0,0,1,.041.505,6.736,6.736,0,0,1-.062.806c-.04.329-.088.643-.143.943l-.862,4.8Zm4.294,3.144a2.467,2.467,0,0,1-1.914-.7,2.846,2.846,0,0,1-.642-1.989,5.8,5.8,0,0,1,.233-1.58,4.75,4.75,0,0,1,.718-1.5,4.081,4.081,0,0,1,1.216-1.121,3.267,3.267,0,0,1,1.73-.443,2.466,2.466,0,0,1,1.927.71,2.87,2.87,0,0,1,.642,2,5.814,5.814,0,0,1-.231,1.586,4.9,4.9,0,0,1-.712,1.5,3.908,3.908,0,0,1-1.217,1.114A3.368,3.368,0,0,1,794.024,522.619Zm.137-1.08a1.76,1.76,0,0,0,1.1-.349,2.7,2.7,0,0,0,.746-.881,4.431,4.431,0,0,0,.424-1.155,5.54,5.54,0,0,0,.136-1.169,1.791,1.791,0,0,0-.348-1.19,1.233,1.233,0,0,0-.992-.41,1.718,1.718,0,0,0-1.093.355,2.823,2.823,0,0,0-.738.889,4.277,4.277,0,0,0-.417,1.155,5.655,5.655,0,0,0-.13,1.155,1.842,1.842,0,0,0,.334,1.189,1.19,1.19,0,0,0,.979.411Zm5.645-3.144q.15-.82.24-1.409a7.03,7.03,0,0,0,.088-1.026c0-.118,0-.211-.007-.28a2.426,2.426,0,0,0-.034-.252,2.913,2.913,0,0,1,.329-.041c.118-.009.227-.015.327-.015s.195.006.308.015a2.454,2.454,0,0,1,.308.041,1.729,1.729,0,0,1,.041.252q.013.144.013.376a3.465,3.465,0,0,1-.034.492c-.024.155-.049.307-.075.452a3.057,3.057,0,0,1,.383-.6,3.2,3.2,0,0,1,.573-.554,3.275,3.275,0,0,1,.732-.41,2.245,2.245,0,0,1,.855-.164,1.78,1.78,0,0,1,1.278.436,1.8,1.8,0,0,1,.458,1.354,4.091,4.091,0,0,1-.028.458c-.018.168-.041.33-.068.485l-.779,4.442a3.486,3.486,0,0,1-.355.041c-.128.009-.242.013-.342.013s-.212,0-.336-.013a2.453,2.453,0,0,1-.321-.041l.738-4.21q.042-.219.062-.424c.013-.137.021-.255.021-.355a1.017,1.017,0,0,0-.254-.779.959.959,0,0,0-.676-.233,1.353,1.353,0,0,0-.725.225,2.538,2.538,0,0,0-.669.663,4.978,4.978,0,0,0-.567,1.08,7.794,7.794,0,0,0-.4,1.476l-.451,2.556a3.479,3.479,0,0,1-.355.041c-.128.009-.242.013-.342.013s-.212,0-.334-.013a2.4,2.4,0,0,1-.321-.041Zm12.14-1.914a1.974,1.974,0,0,0-.342-.055c-.119-.009-.25-.013-.4-.013a2.4,2.4,0,0,0-1.225.314,3.067,3.067,0,0,0-.928.84,3.939,3.939,0,0,0-.6,1.19,4.562,4.562,0,0,0-.2,1.36,1.87,1.87,0,0,0,.233,1.018.773.773,0,0,0,.7.362,1.419,1.419,0,0,0,.819-.274,2.783,2.783,0,0,0,.725-.759,5.188,5.188,0,0,0,.567-1.135,8.461,8.461,0,0,0,.376-1.387Zm.779,2.994c-.1.547-.181,1.015-.24,1.407a7,7,0,0,0-.088,1.026c0,.119,0,.212.007.28a2.062,2.062,0,0,0,.034.253,3.285,3.285,0,0,1-.328.041q-.177.013-.327.013c-.091,0-.192,0-.3-.013s-.214-.024-.314-.041c-.018-.1-.032-.2-.041-.308s-.013-.234-.013-.389a3.441,3.441,0,0,1,.034-.41c.024-.174.049-.329.075-.466a3.56,3.56,0,0,1-.964,1.168,2.921,2.921,0,0,1-.725.417,2.286,2.286,0,0,1-.868.165,1.61,1.61,0,0,1-1.36-.6,2.592,2.592,0,0,1-.458-1.619,6.073,6.073,0,0,1,.3-1.893,5.013,5.013,0,0,1,.889-1.641,4.431,4.431,0,0,1,1.463-1.155,4.521,4.521,0,0,1,2.038-.436,6.654,6.654,0,0,1,.99.075,4.739,4.739,0,0,1,.883.211Zm6.807-2.994a1.977,1.977,0,0,0-.342-.055c-.118-.009-.25-.013-.4-.013a2.387,2.387,0,0,0-1.223.314,3.054,3.054,0,0,0-.93.84,3.939,3.939,0,0,0-.6,1.19,4.562,4.562,0,0,0-.2,1.36,1.883,1.883,0,0,0,.233,1.018.773.773,0,0,0,.7.362,1.427,1.427,0,0,0,.821-.274,2.8,2.8,0,0,0,.723-.759,5.407,5.407,0,0,0,.575-1.135,8.064,8.064,0,0,0,.383-1.387Zm.793,2.994q-.15.82-.233,1.407a7.549,7.549,0,0,0-.081,1.026v.28a1.5,1.5,0,0,0,.027.253c-.1.018-.206.032-.321.041s-.221.013-.321.013-.2,0-.314-.013a2.759,2.759,0,0,1-.3-.041,2.391,2.391,0,0,1-.049-.239,2.54,2.54,0,0,1-.021-.362,4.413,4.413,0,0,1,.034-.458,3.626,3.626,0,0,1,.1-.539,4.5,4.5,0,0,1-.41.614,3.532,3.532,0,0,1-.575.575,2.988,2.988,0,0,1-.731.423,2.292,2.292,0,0,1-.868.165,1.629,1.629,0,0,1-1.367-.6,2.557,2.557,0,0,1-.466-1.619,6.075,6.075,0,0,1,.3-1.893,5.042,5.042,0,0,1,.89-1.641,4.395,4.395,0,0,1,1.469-1.155,4.529,4.529,0,0,1,2.03-.436q.15,0,.314.013t.274.026c.1-.527.177-.984.231-1.366a7.294,7.294,0,0,0,.083-1.012v-.274c0-.063,0-.14-.013-.231a2.959,2.959,0,0,1,.362-.041c.14-.009.261-.013.361-.013s.195,0,.308.006a1.862,1.862,0,0,1,.308.035,3.524,3.524,0,0,1,.041.505,6.712,6.712,0,0,1-.062.806q-.062.493-.143.943l-.862,4.8Zm4.292,3.144a2.467,2.467,0,0,1-1.914-.7,2.853,2.853,0,0,1-.642-1.989,5.861,5.861,0,0,1,.233-1.58,4.784,4.784,0,0,1,.718-1.5,4.105,4.105,0,0,1,1.217-1.121,3.267,3.267,0,0,1,1.73-.443,2.467,2.467,0,0,1,1.927.71,2.878,2.878,0,0,1,.642,2,5.818,5.818,0,0,1-.233,1.586,4.9,4.9,0,0,1-.71,1.5,3.923,3.923,0,0,1-1.217,1.114A3.37,3.37,0,0,1,824.617,522.619Zm.137-1.08a1.761,1.761,0,0,0,1.1-.349,2.691,2.691,0,0,0,.744-.881,4.436,4.436,0,0,0,.424-1.155,5.459,5.459,0,0,0,.137-1.169,1.791,1.791,0,0,0-.349-1.19,1.229,1.229,0,0,0-.99-.41,1.718,1.718,0,0,0-1.093.355,2.785,2.785,0,0,0-.738.889,4.286,4.286,0,0,0-.419,1.155,5.763,5.763,0,0,0-.13,1.155,1.833,1.833,0,0,0,.336,1.189A1.185,1.185,0,0,0,824.754,521.539Z" transform="translate(-636.037 -512.38)" fill="#fff"/>
      </g>
    </g>
    <rect id="Retângulo_499" data-name="Retângulo 499" width="1.582" height="30.854" transform="translate(161.708 0.873) rotate(3)" fill="#fff"/>
  </g>
</svg>
